<?xml version="1.0" standalone="no"?>
<!DOCTYPE svg PUBLIC "-//W3C//DTD SVG 20010904//EN"
 "http://www.w3.org/TR/2001/REC-SVG-20010904/DTD/svg10.dtd">
<svg version="1.0" xmlns="http://www.w3.org/2000/svg"
 width="316.000000pt" height="316.000000pt" viewBox="0 0 316.000000 316.000000"
 preserveAspectRatio="xMidYMid meet">
<metadata>
Created by potrace 1.14, written by Peter Selinger 2001-2017
</metadata>
<g transform="translate(0.000000,316.000000) scale(0.100000,-0.100000)"
fill="#000000" stroke="none">
<path d="M1848 2261 c-31 -10 -78 -31 -105 -46 -56 -33 -167 -144 -203 -203
-27 -43 -30 -45 -150 -57 -30 -4 -62 -8 -70 -10 -8 -2 -35 -7 -60 -10 -117
-16 -352 -70 -530 -123 l-65 -19 155 1 c85 0 193 -2 240 -7 97 -8 334 -47 462
-76 97 -21 90 -24 130 55 125 243 230 331 408 339 95 5 298 -68 449 -161 l45
-27 -22 30 c-17 25 -104 112 -172 173 -58 52 -169 113 -254 139 -84 26 -181
26 -258 2z"/>
<path d="M1818 1883 c-56 -16 -124 -79 -156 -143 -24 -49 -21 -54 38 -63 19
-3 95 -15 169 -27 73 -11 136 -18 139 -16 11 11 21 93 15 126 -9 53 -29 86
-67 109 -43 27 -81 31 -138 14z"/>
<path d="M3060 1759 c-140 -71 -348 -142 -480 -164 -19 -3 -46 -7 -60 -10 -98
-17 -349 -23 -475 -11 -123 12 -428 60 -445 71 -3 2 -23 6 -45 9 -22 4 -83 15
-135 26 -52 10 -117 22 -145 25 -27 4 -68 11 -90 15 -101 21 -340 30 -491 18
-79 -7 -301 -52 -333 -68 -9 -4 -43 -18 -76 -30 -65 -25 -252 -115 -273 -132
-21 -18 -9 -18 43 -2 68 21 249 61 310 69 100 13 313 13 415 0 151 -18 232
-37 525 -122 417 -120 485 -133 685 -138 284 -7 529 67 830 249 107 65 340
230 340 241 0 3 -1 5 -2 4 -2 -1 -46 -23 -98 -50z"/>
<path d="M3070 1380 c-187 -97 -427 -169 -630 -187 -136 -12 -411 -6 -505 11
-11 2 -42 6 -70 10 -27 4 -117 20 -200 36 -271 52 -419 80 -460 85 -22 3 -51
7 -65 9 -90 17 -380 23 -466 11 -169 -25 -321 -66 -457 -126 -104 -46 -221
-109 -214 -115 2 -3 44 7 92 21 49 14 100 27 114 30 14 2 50 9 78 14 146 28
434 31 563 6 111 -21 143 -28 200 -41 36 -9 85 -22 110 -29 268 -81 402 -118
490 -139 421 -98 763 -40 1160 197 47 28 87 53 90 57 3 3 21 16 40 27 51 32
225 163 214 163 -5 -1 -43 -19 -84 -40z"/>
</g>
</svg>
